<svg version="1.1" id="Layer_1" xmlns="http://www.w3.org/2000/svg" xmlns:xlink="http://www.w3.org/1999/xlink" x="0px" y="0px"
	 width="100%" viewBox="0 0 496 496" enable-background="new 0 0 496 496" xml:space="preserve">
<path fill="#000000" opacity="1.000000" stroke="none" 
	d="
M93.649948,286.136536 
	C88.622887,255.130951 92.487801,225.610764 104.810196,197.304947 
	C118.824913,165.111679 141.323166,140.278381 171.640366,122.618942 
	C189.841263,112.017143 209.507309,105.136559 230.390244,102.835350 
	C284.392731,96.884521 330.527466,113.385963 368.035858,152.952957 
	C389.234375,175.314911 402.472107,201.918808 407.667358,232.194427 
	C416.535522,283.874146 403.426636,329.558624 368.270233,368.541412 
	C344.373352,395.039185 314.492279,411.264862 279.401611,417.514343 
	C234.087601,425.584564 192.665085,415.772919 155.745056,388.472046 
	C121.351753,363.039520 101.137207,328.597961 93.649948,286.136536 
M360.315460,365.815887 
	C366.422882,359.414429 372.180389,352.672607 376.911346,345.222748 
	C405.461182,300.264771 411.564880,252.263824 390.858276,203.205658 
	C366.184326,144.748077 320.075500,113.656677 256.991394,109.672333 
	C222.458954,107.491295 190.216522,117.221039 162.315887,138.161224 
	C117.356102,171.904755 96.419632,217.266281 100.229591,273.417450 
	C102.512543,307.063629 115.352318,336.687134 138.094650,361.645996 
	C173.419724,400.414001 217.645660,417.083466 269.545532,411.355469 
	C304.787476,407.466003 334.918182,391.736328 360.315460,365.815887 
z"/>
<path fill="#000000" opacity="1.000000" stroke="none" 
	d="
M242.902512,205.944946 
	C243.394379,204.658127 243.681305,203.696198 244.077667,202.781693 
	C244.930252,200.814590 245.525131,198.437958 248.246353,198.395874 
	C250.931396,198.354355 251.083725,200.810211 251.808350,202.579849 
	C256.855255,214.905380 261.816132,227.266678 266.961823,239.550644 
	C267.781250,241.506805 268.323334,245.282700 271.022980,244.259232 
	C274.264130,243.030457 271.372131,240.151306 270.639221,238.350616 
	C264.867096,224.168976 258.845459,210.089050 252.952820,195.956070 
	C252.102158,193.915802 250.521072,191.894287 252.087234,189.245438 
	C255.103638,189.439148 255.599350,192.014816 256.451752,193.981262 
	C262.146729,207.119583 267.734528,220.304337 273.382477,233.463150 
	C274.029083,234.969620 274.832489,236.408783 276.008148,238.774582 
	C279.862335,233.719437 283.319855,229.152039 286.815826,224.614227 
	C288.338196,222.638184 289.840576,220.630554 291.539673,218.812637 
	C292.666290,217.607193 294.151031,216.432739 295.919525,217.671814 
	C297.631866,218.871521 297.317444,220.605942 296.463043,222.150040 
	C292.033600,230.155075 287.712097,238.228439 282.981812,246.053604 
	C281.373688,248.713882 280.451294,251.112473 281.622498,253.972992 
	C291.334290,277.692627 301.086121,301.395874 310.836884,325.099548 
	C311.211517,326.010223 311.554108,326.996460 313.522552,327.513824 
	C321.324829,320.090759 329.935303,312.863434 336.594513,303.643951 
	C340.715820,297.938171 344.273865,291.962189 346.140961,285.108856 
	C348.155090,277.715851 346.540619,275.401428 339.015747,274.384308 
	C336.834564,274.089508 334.320557,274.481659 332.528076,272.571533 
	C335.444916,268.469025 339.802460,267.333160 344.820190,269.198059 
	C350.752319,271.402832 354.244080,276.498627 353.475647,282.259888 
	C351.854065,294.416687 345.835693,304.454834 338.169647,313.714508 
	C332.609314,320.430664 326.457977,326.481262 319.171692,331.293793 
	C315.470520,333.738403 314.636200,336.530457 316.804565,340.580688 
	C318.679779,344.083344 320.015167,347.885193 321.463013,351.603882 
	C323.183258,356.022278 325.727264,359.467957 330.661865,360.627899 
	C332.067810,360.958405 333.960571,361.573364 333.115295,363.571320 
	C332.316833,365.458527 330.348602,365.367737 328.774780,364.636475 
	C322.546356,361.742584 318.661530,356.732422 316.175690,350.443848 
	C314.743744,346.821381 313.859192,342.921051 311.432068,339.320862 
	C308.630341,341.385925 309.124390,343.649750 309.884888,345.845123 
	C313.131989,355.219116 317.689392,363.539825 327.615692,367.458588 
	C329.126923,368.055237 330.846436,368.565308 330.641602,371.493744 
	C310.222351,371.479462 289.803955,371.159973 269.298431,371.176147 
	C271.927429,366.506348 276.472504,366.997284 280.253571,366.077118 
	C284.712250,364.992065 286.341766,362.567566 285.881805,358.206879 
	C285.627350,355.794464 284.550537,354.959381 282.224396,355.661591 
	C275.686890,357.635101 269.081482,359.404541 262.612854,361.581299 
	C246.624817,366.961517 233.430008,358.873810 233.070862,342.172729 
	C232.877502,333.180756 235.429977,324.695343 238.141281,316.338287 
	C240.289444,309.717010 243.411484,303.405731 246.217194,297.007721 
	C246.987106,295.252045 247.768921,292.876038 250.398117,293.618134 
	C253.200516,294.409058 253.669647,296.907562 253.066528,299.305054 
	C252.422775,301.864044 251.300720,304.315857 250.257324,306.758881 
	C246.088104,316.520782 240.419266,325.675934 238.742264,336.436737 
	C238.025940,341.033020 238.696243,345.426300 239.950104,349.732239 
	C241.349838,354.539124 244.444611,356.955933 249.877365,357.013092 
	C263.809204,357.159637 275.730743,351.328308 287.489014,345.015503 
	C293.493256,341.791931 299.215546,338.028595 304.969910,334.359619 
	C308.630890,332.025391 308.898102,329.419525 306.897736,325.151184 
	C300.900116,312.353516 295.677216,299.191772 290.193237,286.154755 
	C286.145081,276.531189 282.161530,266.880402 277.955933,256.777466 
	C275.438995,258.961884 276.224701,261.197876 276.742249,263.355652 
	C279.013947,272.827148 284.498260,280.989166 287.621094,290.140808 
	C291.060669,300.220703 295.008270,310.130188 298.875305,320.059113 
	C299.774353,322.367554 300.001648,324.097717 297.662628,325.640961 
	C292.257843,329.206970 286.928284,332.887024 281.663391,336.456268 
	C278.941315,335.469788 278.786499,333.044586 278.022552,331.141876 
	C267.419800,304.734131 256.881012,278.300720 246.317032,251.877426 
	C244.154541,246.468491 241.980194,241.063950 239.759995,235.678543 
	C238.083969,231.613144 238.047531,231.628174 232.420105,232.279251 
	C236.006729,223.253571 239.376953,214.772476 242.902512,205.944946 
z"/>
<path fill="#000000" opacity="1.000000" stroke="none" 
	d="
M239.433258,174.325867 
	C226.451569,208.606934 214.061203,242.714737 198.468491,275.504547 
	C192.041245,289.020355 184.761475,302.129425 179.020065,315.979218 
	C177.959808,318.536865 175.727768,321.313904 178.203568,323.794464 
	C180.600357,326.195892 183.939819,325.072998 186.696625,323.986664 
	C195.946732,320.341858 204.031509,314.801453 211.238327,308.007324 
	C219.836349,299.901672 228.320587,291.675385 236.869522,283.517517 
	C238.072311,282.369751 239.322891,281.263763 240.623367,280.228912 
	C241.971008,279.156555 243.458862,278.200836 245.029785,279.823364 
	C246.634750,281.481079 245.565720,283.015442 244.387039,284.179535 
	C241.311081,287.217438 238.125427,290.148590 234.907684,293.037872 
	C223.282196,303.476593 212.481552,314.839233 199.787994,324.085663 
	C195.119568,327.486328 189.897156,329.643677 184.499695,331.223480 
	C174.439407,334.168030 165.587097,324.113678 168.370163,313.153473 
	C170.326797,305.447876 174.408737,298.616302 178.692520,292.190735 
	C186.698242,280.182434 191.845337,266.804382 198.340836,254.089233 
	C205.903854,239.284409 213.224792,224.312836 219.734589,209.023529 
	C228.649872,188.084549 237.797043,167.150314 242.427765,144.691299 
	C243.395660,139.996979 243.455933,135.113297 243.893585,130.313141 
	C244.041153,128.694565 243.714493,126.964706 245.610016,125.235054 
	C249.522263,128.124313 250.465988,131.949066 249.695358,136.423187 
	C247.486420,149.247559 243.793457,161.675751 239.433258,174.325867 
z"/>
<path fill="#000000" opacity="1.000000" stroke="none" 
	d="
M184.664642,348.620178 
	C185.687241,346.966156 186.680206,345.774536 188.460419,346.543091 
	C189.657089,347.059692 190.103226,348.292236 189.993927,349.473083 
	C189.005066,360.156433 195.026306,364.915558 204.490082,366.919647 
	C205.703873,367.176697 207.145691,367.521423 207.564285,369.091064 
	C204.716751,371.423523 168.718597,372.093140 162.824341,369.347290 
	C172.107025,364.141235 179.407486,357.622131 184.664642,348.620178 
z"/>
</svg>